PathFileType	4	(X/Y/Z)	RBDS014\RBDS014runT45.trc
DataRate	CameraRate	NumFrames	NumMarkers	Units	OrigDataRate	OrigDataStartFrame	OrigNumFrames
150.000000	150.000000	6	32	mm	150.000000	3375	4500
Frame#	Time	L.ASIS			L.Heel.Bottom			L.Heel.Lateral			L.Heel.Top			L.Iliac.Crest			L.MT1			L.MT5			L.PSIS			L.Shank.Bottom.Lateral			L.Shank.Bottom.Medial			L.Shank.Top.Lateral			L.Shank.Top.Medial			L.Thigh.Bottom.Lateral			L.Thigh.Bottom.Medial			L.Thigh.Top.Lateral			L.Thigh.Top.Medial			R.ASIS			R.ASY			R.Heel.Bottom			R.Heel.Lateral			R.Heel.Top			R.Iliac.Crest			R.MT5			R.PSIS			R.Shank.Bottom.Lateral			R.Shank.Bottom.Medial			R.Shank.Top.Lateral			R.Shank.Top.Medial			R.Thigh.Bottom.Lateral			R.Thigh.Bottom.Medial			R.Thigh.Top.Lateral			R.Thigh.Top.Medial			
		X1	Y1	Z1	X2	Y2	Z2	X3	Y3	Z3	X4	Y4	Z4	X5	Y5	Z5	X6	Y6	Z6	X7	Y7	Z7	X8	Y8	Z8	X9	Y9	Z9	X10	Y10	Z10	X11	Y11	Z11	X12	Y12	Z12	X13	Y13	Z13	X14	Y14	Z14	X15	Y15	Z15	X16	Y16	Z16	X17	Y17	Z17	X18	Y18	Z18	X19	Y19	Z19	X20	Y20	Z20	X21	Y21	Z21	X22	Y22	Z22	X23	Y23	Z23	X24	Y24	Z24	X25	Y25	Z25	X26	Y26	Z26	X27	Y27	Z27	X28	Y28	Z28	X29	Y29	Z29	X30	Y30	Z30	X31	Y31	Z31	X32	Y32	Z32	

3376	22.5	2268.935826975671	1025.986381131946	966.2957172166081	1619.78488711512	660.1691917756352	1083.460838248423	1629.795419963791	639.7488572636514	1036.619750186711	1664.667004926224	637.1602430401734	1075.619599494986	2222.850724496484	1099.178260131419	927.5726701916623	1571.680411805865	425.4169705105275	1084.565647715705	1563.339242376777	486.9961431265986	979.3028140051705	2084.521969230811	1058.2578431208	1015.089927465305	1754.845920023172	561.5641910447368	991.5565161026462	1763.645477500538	601.7271478768564	1029.144011189705	1833.729111168086	561.8349168529492	974.1779486674653	1842.675503972653	600.3943124886741	1010.041209527756	2136.705565927623	635.5129723131797	919.3170113948598	2080.654494496505	641.5746528520731	965.3573520612008	2133.758134912216	745.1348416003821	905.8577445024383	2083.564129769375	751.4351034458629	952.766575160771	2248.538022810154	1057.39612428236	1205.828151085012	2414.841554582204	85.13846600989781	1122.957881380526	2216.642297422789	29.77002371254891	1101.027540827266	2238.518963411772	49.26182919345207	1141.740011243887	2227.769184835166	80.52546896276077	1101.881992133949	2175.96003630527	1110.520934831087	1234.341911745205	2412.426158968492	31.3715225411518	1191.355978101106	2079.619083220041	1074.517045906699	1107.644681925794	2296.373788524872	178.7245474121522	1172.892075827546	2266.24122023235	193.8595140583761	1133.94264720558	2302.093441983686	259.7346833827924	1198.163375459519	2269.727798916315	271.1184562736642	1157.229480802893	2329.512605763853	681.5391548326947	1249.266257154118	2272.448145207169	650.3728707357202	1215.923147657927	2267.614902427238	771.0067789806396	1265.445879808211	2214.122600558244	742.3044692866395	1231.907662820782	
3377	22.50666666666667	2266.528534012767	1020.984769836394	966.6730047193578	1638.85001771535	661.4091222056423	1080.574900539736	1649.517323765452	640.8244783993666	1034.236393796668	1683.906095293597	638.740421065584	1073.689251524453	2220.432076649885	1093.775371925068	925.8698440045052	1592.649908903039	426.5035021199043	1082.987547401588	1585.078119727057	487.3122406889665	977.2946912178347	2081.585346470549	1053.52622197293	1012.632498608271	1775.194923768654	561.2404429371463	990.4619517469979	1784.696194426269	601.3981694815375	1027.902766257953	1854.139705503744	559.9065133211499	973.2882940132465	1863.796977739455	598.440476739573	1009.050415921604	2149.168745192744	629.7789623947535	919.5423172871933	2091.903716451413	633.4482776145744	964.1296882083436	2142.038224735317	739.1266394475567	905.8190133363203	2090.574994089177	743.3529733356088	951.4131602664955	2244.978438474315	1056.214895820869	1206.615828045405	2386.174681804547	83.87306635503343	1122.260862369395	2186.631520447423	31.49982451357978	1100.7798754245	2208.80313038197	51.30701818453449	1141.291518622304	2198.526733884165	82.32970509126304	1101.133121382729	2172.205501884162	1107.118700218082	1233.751490966854	2382.629699927514	30.99840422377448	1191.511536371494	2076.505093725591	1071.185804630075	1105.084439386636	2272.653945875053	180.070751583046	1172.774838062675	2243.445389049319	196.8477229262518	1133.760022307582	2282.259986339892	260.7092492753144	1198.384777478078	2250.726515199257	273.8044283124316	1157.342365034709	2322.634932337133	679.0374249099352	1251.114604664674	2265.793442289912	648.6140448048376	1216.668808504156	2261.805340925357	769.2408244565871	1266.409576885778	2208.345599762268	741.1951946481714	1232.097680220399	
3378	22.51333333333334	2263.731349640033	1016.509752522072	966.9903479599037	1657.476305355012	660.7744702791504	1076.746663963931	1669.03029164778	639.8656807064234	1031.066517964414	1702.860461731488	638.7088800049393	1071.024018227924	2217.423082251651	1089.103704839848	924.2228283325567	1614.690597565279	425.5301425151	1081.750071385794	1607.727367224549	484.9082583245403	975.3396103760101	2078.528773163088	1049.84185246029	1010.359809704954	1795.985391250603	559.7858726442141	989.1666142835884	1805.845888243035	600.0341844156151	1026.435186892139	1874.992612295011	557.3331487046703	972.3707032777992	1885.056720421548	595.9417725582244	1008.02324226244	2162.312243722449	625.156631796521	919.9355641039841	2103.858926500116	626.1996411769092	962.9368536963824	2150.714151602559	734.0389213707282	905.9541689398353	2097.990464261512	735.9597027313564	950.0697764638717	2241.540003720955	1055.693921934201	1207.253450852046	2356.943858222134	83.43809849913521	1121.842297078986	2156.727452757564	32.8923392802034	1100.726715914084	2179.072337916061	53.04148965080716	1141.068054418638	2169.052301031883	83.77652978959983	1100.68239587122	2168.362100643946	1104.782939251944	1233.108202497863	2352.674829449837	31.28460097017435	1191.717695299417	2073.465018219365	1068.694315934823	1102.81129717361	2248.166215665636	181.3707504293823	1172.875560153544	2219.873869840078	199.6431874635845	1133.813180991463	2261.420021093085	261.506524099357	1198.724633540093	2230.721073709308	276.1687174762248	1157.611514227141	2314.776456360469	676.3062393627732	1252.706314924712	2257.917433306432	646.8629534804156	1217.39082490806	2255.471541987364	767.4919420519475	1267.250967954595	2201.846462088622	740.3508817743613	1232.333882200242	
3379	22.52	2260.627926824833	1012.730316034935	967.1970384474306	1675.52746746124	658.2622882479648	1072.062572404999	1688.185177902786	636.8841115359182	1027.164814163875	1721.379781592954	637.059401921382	1067.648685114126	2213.882797008345	1085.330498402284	922.6884206466934	1637.592209216959	422.5549959397679	1080.881474230386	1631.088553662579	479.8754678967558	973.4879872803343	2075.452068314935	1047.27354909766	1008.458306720199	1817.03913561025	557.2901103487505	987.6762098588572	1826.89641571233	597.7222366472163	1024.761274291348	1896.129278646818	554.2560661976047	971.4341754976662	1906.270507114641	593.0346446005683	1006.98162596556	2176.046487967876	621.8235323305677	920.4802905848683	2116.526648261121	620.0016826164941	961.8589944031928	2159.704155153508	730.0238698207609	906.2841923099269	2105.820141816561	729.3936833993613	948.8352949724517	2238.366270501325	1055.679559755251	1207.718131125604	2327.30259069465	83.5374099639259	1121.700263090335	2126.909555431416	33.94419666375335	1100.857658752573	2149.3362953602	54.40553809090938	1141.067578184877	2139.418103900318	84.8608153035579	1100.531082867197	2164.639337981173	1103.506256390632	1232.447438558046	2322.622018727601	31.91458307562138	1191.986196419356	2070.595640177324	1067.073143256648	1100.989069007597	2222.993181768274	182.4362791969905	1173.173340881981	2195.563901916202	202.0462319382835	1134.101411036429	2239.617184467313	261.9633363528081	1199.165336871728	2209.706461798991	278.0377198373527	1158.039825263273	2305.980227160324	673.3311353935942	1253.994991945023	2248.820010411894	645.0920284671912	1218.148842579412	2248.661676349092	765.7279258579105	1267.957042048691	2194.650025107084	739.7298605469048	1232.678977468426	
3380	22.52666666666667	2257.314243361664	1009.79387597638	967.2545836811281	1692.894078485553	653.850182957709	1066.683497903625	1706.857074804503	631.9009248718738	1022.647235896207	1739.333680147146	633.775745083032	1063.647095990593	2209.90732645139	1082.574482442439	921.3143085150853	1661.187856085923	417.6462063937298	1080.372064251385	1654.999319028622	472.3652962228932	971.7746219533923	2072.44364818458	1045.82198594507	1007.090730407792	1838.174082914566	553.8507934472347	986.0127983546402	1847.653689989471	594.5464696379842	1022.918311707703	1917.376566666963	550.8206226081971	970.4896560490766	1927.244300765275	589.8492343566689	1005.948070169881	2190.250106461448	619.9354832711417	921.1481054096316	2129.873162990443	615.024262932759	960.9574812537767	2168.913646868314	727.2116318696955	906.8110536689053	2114.05214207923	723.7895170002421	947.7876269284723	2235.563374448622	1055.992941493184	1208.006059160234	2297.376045103751	83.91637092470975	1121.797677777127	2097.123145584796	34.71455786534371	1101.143563866497	2119.573272304977	55.41364433617045	1141.266437103156	2109.665430517894	85.64145401711289	1100.652588480041	2161.243075631315	1103.201442612582	1231.811641432221	2292.495655552034	32.63452285726916	1192.308347613167	2067.969568116013	1066.313871735981	1099.744753652286	2197.218521647412	183.1772707510771	1173.623102934175	2170.564272083222	203.9679316378365	1134.594725137345	2216.919577691288	262.0163927702297	1199.674929096084	2187.712261541993	279.3501590355841	1158.606198054574	2296.315194945564	670.1514242222346	1254.960638740021	2238.554703060728	643.3178875315118	1218.992302539735	2241.423460382067	763.9508530024534	1268.524110391795	2186.800442964265	739.3130675445536	1233.178819256751	
3381	22.53333333333333	2253.89354792488	1007.813104246325	967.1425418279662	1709.504807940017	647.5001059898835	1060.831883981449	1724.956102533457	624.9482277952927	1017.68338932497	1756.62319323896	628.833153297699	1059.158169532671	2205.62474132988	1080.894097648459	920.1342699825756	1685.362623862084	410.8794795328612	1080.173682630885	1679.34080574397	462.5831693072284	970.2145499025307	2069.574901849614	1045.425964970518	1006.370083127119	1859.215178316502	549.5646867643109	984.2156863004515	1867.938649650095	590.5808634623667	1020.958789516157	1938.554474391933	547.1632543499305	969.5509986127755	1947.78378745808	586.4985415006809	1004.944129319015	2204.775530054227	619.6194317805894	921.9023725620293	2143.822614877076	611.4270023047195	960.2714180152133	2178.23972688348	725.7050138408114	907.5172760470981	2122.651102366892	719.273674990284	946.9778616511145	2233.191318524745	1056.460611809045	1208.13250993952	2267.266579131587	84.38337013903569	1122.076066181418	2067.30434701752	35.31533067535334	1101.54280461872	2089.751835898698	56.14765202409075	1141.625449892975	2079.820008864726	86.23139444979741	1101.000061954054	2158.351559789415	1103.722583733608	1231.242990923952	2262.2993443289	33.26986046357588	1192.658920156135	2065.633482070546	1066.372413105436	1099.150450155428	2170.926937212138	183.605030523572	1174.164592745904	2144.940085742128	205.4298840727608	1135.239443041131	2193.415298945744	261.7024934036093	1200.212755042456	2164.803790195896	280.1536845805788	1159.26901467411	2285.859320628774	666.8503789758715	1255.606192261021	2227.215225661625	641.5989271927057	1219.944179515902	2233.793856613298	762.1935995909481	1268.95381323467	2178.352565698534	739.1068897394398	1233.848702069321	
